<svg xmlns="http://www.w3.org/2000/svg" aria-hidden="true" style="position:absolute;width:0;height:0;overflow:hidden">
  <defs>
    <symbol id="icon-upper-corner" viewBox="0 0 32 32">
      <path d="m.781 22.114 3.771 3.771L16 14.437l11.448 11.448 3.771-3.771L16 6.895.781 22.114z"/>
    </symbol>
    <symbol id="icon-lower-corner" viewBox="0 0 32 32">
      <path d="M27.448 6.115 16 17.563 4.552 6.115.781 9.886 16 25.105 31.219 9.886l-3.771-3.771z"/>
    </symbol>
    <symbol id="icon-left-corner" viewBox="0 0 32 32">
      <path d="M22.114.781 6.895 16l15.219 15.219 3.771-3.771L14.437 16 25.885 4.552 22.114.781z"/>
    </symbol>
    <symbol id="icon-right-corner" viewBox="0 0 32 32">
      <path d="m9.885 31.866 15.219-15.219L9.885 1.428 6.114 5.199l11.448 11.448L6.114 28.095l3.771 3.771z"/>
    </symbol>
    <symbol id="icon-upper-arrow" viewBox="0 0 32 32">
      <path d="M13.714 10.089V32h4.571V10.089l9.813 9.813 3.232-3.232L16 1.34.67 16.67l3.232 3.232 9.813-9.813z"/>
    </symbol>
    <symbol id="icon-lower-arrow" viewBox="0 0 32 32">
      <path d="m31.33 15.33-3.232-3.232-9.813 9.813V0h-4.571v21.911l-9.813-9.813L.669 15.33l15.33 15.33 15.33-15.33z"/>
    </symbol>
    <symbol id="icon-left-arrow" viewBox="0 0 32 32">
      <path d="m19.902 28.098-9.813-9.813H32v-4.571H10.089l9.813-9.813L16.67.669 1.34 15.999l15.33 15.33 3.232-3.232z"/>
    </symbol>
    <symbol id="icon-right-arrow" viewBox="0 0 32 32">
      <path d="m12.098 28.098 3.232 3.232L30.66 16 15.33.67l-3.232 3.232 9.813 9.813H0v4.571h21.911l-9.813 9.813z"/>
    </symbol>
    <symbol id="icon-minus" viewBox="0 0 32 32">
      <path d="M0 13.714h32v4.571H0v-4.571z"/>
    </symbol>
    <symbol id="icon-plus" viewBox="0 0 32 32">
      <path d="M32 13.714H18.286V0h-4.571v13.714H.001v4.571h13.714v13.714h4.571V18.285H32v-4.571z"/>
    </symbol>
    <symbol id="icon-check" viewBox="0 0 32 32">
      <path d="m10.667 21.517-7.025-7.025-3.017 3.017 10.042 10.042L31.375 6.843l-3.017-3.017-17.692 17.692z"/>
    </symbol>
    <symbol id="icon-cross" viewBox="0 0 32 32">
      <path d="M27.179.918 15.864 12.23 4.552.918.781 4.689l11.312 11.312L.781 27.313l3.771 3.771 11.312-11.312 11.315 11.312 3.771-3.771-11.312-11.312L30.95 4.689 27.179.918z"/>
    </symbol>
    <symbol id="icon-star" viewBox="0 0 32 32">
      <path d="M7.226 19.717 4.842 30.04a1.596 1.596 0 0 0 2.447 1.69l8.712-5.808 8.712 5.808a1.604 1.604 0 0 0 1.829-.04 1.606 1.606 0 0 0 .598-1.73l-2.926-10.24 7.258-6.531a1.604 1.604 0 0 0-.944-2.785l-9.122-.726L17.459.94a1.6 1.6 0 0 0-1.457-.945 1.591 1.591 0 0 0-1.457.945l-3.947 8.738-9.122.725a1.597 1.597 0 0 0-1.378 1.051 1.597 1.597 0 0 0 .388 1.69l6.742 6.571zm4.564-6.922a1.598 1.598 0 0 0 1.331-.937l2.878-6.37 2.878 6.37a1.597 1.597 0 0 0 1.331.937l6.355.504-5.234 4.71a1.605 1.605 0 0 0-.469 1.629l2.005 7.016-5.978-3.986a1.591 1.591 0 0 0-1.774 0l-6.246 4.165 1.68-7.274a1.6 1.6 0 0 0-.442-1.504l-4.861-4.739 6.544-.522z"/>
    </symbol>
    <symbol id="icon-menu-alt-right" viewBox="0 0 32 32">
      <path d="M5.333 8h21.333v2.667H5.333V8zm5.334 6.667h16v2.667h-16v-2.667zm6.666 6.666h9.333V24h-9.333v-2.667z"/>
    </symbol>
    <symbol id="icon-message" viewBox="0 0 32 32">
      <path d="M28.8 3.2H3.2A3.203 3.203 0 0 0 0 6.4v19.2c0 1.765 1.435 3.2 3.2 3.2h25.6c1.765 0 3.2-1.435 3.2-3.2V6.4c0-1.765-1.435-3.2-3.2-3.2zm0 3.2v.818L16 17.175 3.2 7.22v-.819h25.6zM3.2 25.6V11.27l11.818 9.192a1.59 1.59 0 0 0 1.964 0L28.8 11.27l.003 14.33H3.2z"/>
    </symbol>
    <symbol id="icon-phone" viewBox="0 0 32 32">
      <path d="M24.77 17.336a1.694 1.694 0 0 0-1.836-.365c-.205.084-.39.209-.546.365l-2.685 2.685c-1.245-.371-3.567-1.213-5.039-2.685s-2.314-3.795-2.685-5.039l2.685-2.685a1.694 1.694 0 0 0 .365-1.836 1.667 1.667 0 0 0-.365-.546L7.927.493A1.694 1.694 0 0 0 6.091.128c-.205.084-.39.209-.546.365L.977 5.061c-.64.64-1 1.519-.987 2.417.039 2.398.674 10.729 7.239 17.294s14.895 7.198 17.295 7.239h.047c.889 0 1.73-.35 2.366-.987l4.568-4.568a1.694 1.694 0 0 0 .365-1.836 1.667 1.667 0 0 0-.365-.546l-6.737-6.739zm-.214 11.304c-2.102-.035-9.293-.6-14.944-6.252C3.943 16.719 3.394 9.502 3.36 7.442l3.377-3.377 4.355 4.355-2.178 2.178c-.198.198-.344.442-.423.71s-.092.552-.035.826c.04.194 1.029 4.787 3.825 7.582s7.389 3.784 7.582 3.825a1.663 1.663 0 0 0 1.536-.457l2.179-2.178 4.355 4.355-3.379 3.377z"/>
    </symbol>
    <symbol id="icon-location" viewBox="0 0 32 32">
      <path d="M16 19.2c3.53 0 6.4-2.87 6.4-6.4S19.53 6.4 16 6.4c-3.53 0-6.4 2.87-6.4 6.4s2.87 6.4 6.4 6.4zm0-9.6c1.765 0 3.2 1.435 3.2 3.2S17.765 16 16 16c-1.765 0-3.2-1.435-3.2-3.2s1.435-3.2 3.2-3.2z"/>
      <path d="M15.072 31.702a1.6 1.6 0 0 0 1.856 0c.486-.344 11.918-8.598 11.872-18.902C28.8 5.742 23.058 0 16 0S3.2 5.742 3.2 12.792c-.046 10.312 11.386 18.566 11.872 18.91zM16 3.2c5.294 0 9.6 4.306 9.6 9.608.034 7.101-7.021 13.477-9.6 15.568-2.578-2.093-9.634-8.47-9.6-15.576 0-5.294 4.306-9.6 9.6-9.6z"/>
    </symbol>
    <symbol id="icon-favicon" viewBox="0 0 32 32">
      <path d="M28.247 1.479c.494-.026 1.028-.053 1.474.044.251.055.417.145.561.359.093.491.174.977.193 1.477.041 1.059.03 2.127.02 3.192-.005.483-.008.966-.008 1.447l-.001 9.176c0 .301.01.808.021 1.426.038 2.162.101 5.679-.099 6.453-.143.555-.436.81-.93 1.094-.442.055-.903.065-1.359.075-.239.005-.478.01-.712.021-2.202.109-4.528.328-6.551 1.237-.542.244-1.085.53-1.561.882-.244.18-.516.431-.807.699-.725.667-1.562 1.439-2.352 1.481-.91.049-1.773-.709-2.57-1.408-.379-.332-.743-.652-1.089-.865-.84-.516-1.791-.913-2.733-1.213-1.555-.495-3.202-.748-4.832-.842a12.512 12.512 0 0 0-.754-.013c-.473.002-.953.002-1.399-.094-.389-.084-.639-.276-.932-.528-.214-.495-.28-1.106-.307-1.639-.047-.954-.035-1.918-.023-2.879.006-.427.011-.853.011-1.277l.006-8.116-.007-6.141c0-.268-.011-.56-.023-.861-.033-.816-.069-1.705.114-2.401.1-.382.327-.551.656-.756 3.619-.228 7.572.503 10.751 2.224 1.056.572 2.009 1.272 2.97 1.979a49.395 49.395 0 0 1 1.642-1.155c2.993-1.99 6.558-2.974 10.169-3.061.147-.004.302-.012.462-.02zm-.416 2.757c-.438.004-.903-.023-1.337.033-2.97.261-6.78 1.318-8.797 3.619-.086.098-.169.2-.249.303l-.004 18.073c.33-.233.656-.474.991-.7 2.775-1.613 6.247-1.89 9.409-2.111 0-6.401.088-12.816-.014-19.216zM4.162 4.24c-.068 2.674-.053 5.357-.038 8.037.006 1.099.011 2.198.011 3.296 0 .806-.011 1.617-.021 2.43v.007c-.023 1.8-.047 3.61.045 5.389 3.655.306 7.325.657 10.369 2.831-.018-5.998.016-11.995.102-17.991-2.393-2.458-6.138-3.91-9.591-4.004a16.064 16.064 0 0 0-.878.006z"/>
      <path d="M28.247 1.479zm1.474.044zm.561.359.218-.041-.008-.045-.025-.038-.185.124zm.194 1.477zm.019 3.192zm-.008 1.448zm-.001 9.176h-.222.222zm.021 1.426zm-.1 6.453zm-.93 1.094.027.22.044-.005.039-.022-.111-.193zm-1.359.075zm-.712.021zm-6.551 1.238zm-1.561.882.132.179-.132-.178zm-.807.699zm-2.352 1.481.012.222-.012-.222zm-2.57-1.408zm-1.089-.865zm-2.733-1.213.067-.212-.067.212zm-4.833-.842-.013.222.013-.222zm-.754-.013zm-1.399-.094-.047.217.047-.217zm-.932-.528-.204.088.02.047.039.033.145-.168zm-.307-1.639zm-.023-2.879zm.012-1.278zm.005-8.116h.222-.222zm-.007-6.141zm-.022-.86zm.113-2.401zm.657-.756-.014-.222-.056.004-.047.029.117.189zm10.751 2.225zm2.97 1.979-.132.179.131.096.131-.095-.13-.18zm1.642-1.155zm10.169-3.061.005.222-.006-.222zm.046 2.737.222-.004-.003-.22-.22.002.002.222zm-1.337.032.02.221.009-.001-.029-.22zm-8.797 3.62-.167-.146-.001.001.168.146zm-.248.302-.176-.136-.046.06v.076h.222zm-.005 18.073h-.222v.429l.35-.248-.128-.181zm.992-.701-.112-.192-.012.008.124.184zm9.409-2.11.015.222.207-.014v-.207h-.222zM4.162 4.24l-.007-.222-.21.007-.005.21.222.006zm-.039 8.037zm.012 3.295zm-.022 2.431L3.891 18v.003h.222zm0 .007.222.003v-.003h-.222zm.046 5.389-.222.012.01.194.193.016.019-.221zm10.369 2.831-.129.181.353.252-.001-.433-.222.001zm.102-17.991.222.003.001-.092-.064-.066-.159.155zM5.039 4.234l.006-.222h-.001l-.005.222zm23.208-2.755.012.222c.502-.026 1.004-.05 1.416.039l.094-.434c-.481-.105-1.047-.074-1.533-.049l.012.222zm1.474.044-.047.217a.766.766 0 0 1 .251.092.57.57 0 0 1 .173.174l.369-.247a1.005 1.005 0 0 0-.308-.305 1.217 1.217 0 0 0-.391-.148l-.047.217zm.561.359-.218.041c.092.49.171.962.19 1.445l.444-.017a10.253 10.253 0 0 0-.197-1.51l-.218.041zm.194 1.477-.222.008c.04 1.053.03 2.115.02 3.181l.444.004c.01-1.064.021-2.137-.02-3.202l-.222.009zm.019 3.192-.222-.002c-.005.483-.009.967-.009 1.45h.444c0-.48.004-.962.008-1.445l-.222-.002zm-.008 1.448h-.222l-.001 9.176h.444l.001-9.176h-.222zm-.001 9.176h-.222c0 .304.01.814.021 1.43l.444-.008c-.011-.619-.021-1.124-.021-1.423h-.222zm.021 1.426-.222.004c.019 1.082.044 2.499.04 3.742a39.815 39.815 0 0 1-.034 1.666c-.022.476-.055.818-.098.985l.43.111c.057-.219.091-.607.112-1.076.022-.477.032-1.06.034-1.684.005-1.249-.021-2.671-.04-3.752l-.222.004zm-.1 6.453-.215-.056a1.252 1.252 0 0 1-.283.555c-.129.143-.302.263-.543.402l.221.385c.254-.145.474-.294.651-.489.18-.199.305-.435.384-.742l-.215-.056zm-.93 1.094-.027-.221c-.429.053-.879.064-1.337.074l.005.222.005.222c.455-.01.927-.021 1.382-.077l-.027-.22zm-1.359.075-.005-.222c-.238.005-.48.01-.718.022l.011.222.011.222c.23-.011.465-.016.705-.021l-.005-.222zm-.712.021-.011-.222c-2.204.109-4.567.328-6.631 1.257l.182.405c1.981-.891 4.27-1.109 6.471-1.218l-.011-.222zm-6.551 1.238-.091-.203c-.549.247-1.109.541-1.602.906l.264.357c.458-.339.986-.618 1.52-.858l-.091-.202zm-1.561.882-.132-.179c-.256.189-.538.449-.825.714l.301.327c.293-.27.556-.512.788-.684l-.132-.179zm-.807.699-.151-.163c-.364.336-.744.685-1.129.957-.388.274-.753.448-1.084.466l.012.222.012.222c.458-.025.907-.258 1.317-.547.413-.291.814-.661 1.174-.993l-.15-.163zm-2.352 1.481-.012-.222c-.389.021-.786-.13-1.197-.39s-.813-.611-1.214-.963l-.293.334c.395.347.823.724 1.27 1.005s.937.485 1.458.457l-.012-.222zm-2.57-1.408.147-.167c-.375-.329-.754-.663-1.12-.887l-.233.379c.327.201.676.506 1.059.843l.147-.167zm-1.089-.865.116-.189c-.86-.528-1.828-.932-2.782-1.236l-.067.212-.067.212c.931.296 1.863.686 2.684 1.191l.116-.189zm-2.733-1.213.067-.212c-1.576-.502-3.242-.757-4.887-.852l-.013.222-.013.222c1.617.094 3.245.345 4.778.832l.067-.212zm-4.833-.842.013-.222a12.296 12.296 0 0 0-.768-.013l.001.222.001.222c.256-.001.503-.002.741.012l.013-.222zm-.754-.013-.001-.222c-.478.002-.933.001-1.352-.089l-.093.434c.474.102.978.1 1.447.099l-.001-.222zm-1.399-.094.047-.217c-.331-.072-.546-.232-.834-.48l-.29.337c.297.256.584.481 1.03.577l.047-.217zm-.932-.528.204-.088c-.197-.456-.263-1.033-.289-1.562l-.444.022c.027.537.094 1.183.325 1.716l.204-.088zm-.307-1.639.222-.011c-.047-.945-.035-1.903-.022-2.865l-.444-.006c-.012.96-.025 1.931.023 2.893l.222-.011zm-.023-2.879.222.003c.006-.426.011-.854.011-1.28h-.444c0 .423-.006.847-.011 1.274l.222.003zm.012-1.278h.222l.006-8.116h-.444l-.006 8.116h.222zm.005-8.116h.222l-.007-6.141-.444.001.007 6.141h.222zm-.007-6.141h.222c0-.273-.011-.568-.023-.87l-.444.018c.012.301.022.589.023.852h.222zm-.022-.86.222-.009c-.033-.826-.066-1.678.107-2.335l-.43-.113c-.193.735-.153 1.66-.121 2.466l.222-.009zm.113-2.401.215.056c.077-.295.238-.425.559-.623l-.234-.377c-.338.21-.631.418-.754.888l.215.056zm.657-.756.014.222c3.583-.226 7.493.499 10.632 2.198l.211-.391C9.889 1.797 5.894 1.059 2.239 1.289l.014.222zm10.751 2.225-.106.195c1.04.563 1.981 1.254 2.944 1.962l.263-.358c-.96-.706-1.924-1.415-2.996-1.995l-.106.195zm2.97 1.979.13.18a50.2 50.2 0 0 1 1.635-1.15l-.246-.37c-.561.373-1.109.768-1.65 1.16l.13.18zm1.642-1.155.123.185c2.954-1.964 6.477-2.937 10.051-3.024l-.011-.444c-3.646.088-7.254 1.082-10.287 3.098l.123.185zm10.169-3.061.006.222c.151-.004.309-.012.468-.02l-.023-.444c-.16.008-.312.016-.456.02l.005.222zm.046 2.737-.002-.222c-.418.003-.912-.024-1.363.035l.028.22.029.22c.416-.054.851-.027 1.31-.031l-.002-.222zm-1.337.032-.019-.221c-1.501.132-3.216.465-4.814 1.058-1.596.592-3.089 1.448-4.131 2.637l.334.293c.976-1.113 2.395-1.936 3.951-2.513 1.554-.576 3.229-.902 4.698-1.032l-.02-.221zm-8.797 3.62-.168-.146a7.74 7.74 0 0 0-.257.312l.352.272c.076-.099.157-.197.24-.293l-.168-.146zm-.248.302h-.222l-.004 18.072h.444l.004-18.072h-.222zm-.005 18.073.128.181c.335-.237.655-.473.988-.698l-.249-.368c-.337.228-.671.473-.995.703l.128.181zm.992-.701.112.192c2.723-1.582 6.141-1.86 9.313-2.081l-.015-.222-.016-.222c-3.153.221-6.678.497-9.505 2.14l.112.192zm9.409-2.11h.222c0-6.397.088-12.817-.014-19.219l-.444.007c.102 6.398.014 12.807.014 19.212h.222zM4.162 4.24l-.222-.006c-.068 2.678-.053 5.365-.038 8.044l.444-.002c-.014-2.68-.03-5.36.038-8.03l-.222-.006zm-.039 8.037-.222.001c.006 1.099.011 2.198.011 3.294h.444c0-1.098-.005-2.198-.011-3.297l-.222.001zm.012 3.295h-.222c0 .804-.011 1.614-.021 2.428l.444.006c.011-.813.021-1.626.021-2.433h-.222zm-.022 2.431h-.222v.007h.444v-.007h-.222zm0 .007-.222-.003c-.023 1.799-.047 3.616.046 5.404l.444-.023c-.092-1.771-.069-3.574-.045-5.375l-.222-.003zm.046 5.389-.019.221c3.663.307 7.272.658 10.259 2.79l.258-.362c-3.101-2.214-6.834-2.566-10.48-2.872l-.019.221zm10.369 2.831.222-.001c-.018-5.996.016-11.992.102-17.988l-.444-.006c-.086 5.998-.12 11.997-.102 17.995l.222-.001zm.102-17.991.159-.155C12.35 5.579 8.548 4.108 5.045 4.013l-.006.222-.006.222c3.403.093 7.091 1.526 9.438 3.937l.159-.155zM5.039 4.234l.005-.222a16.455 16.455 0 0 0-.889.006l.007.222.007.222c.289-.009.578-.012.866-.006l.005-.222z"/>
    </symbol>
  </defs>
</svg>
